#!OML:ASF H:\Not Pregnant\Project 1\Capture day 1\Session 1\non-pregnant.ASF
:FULLY-SPECIFIED
:DEGREES
1134
root 3.61168 14.9566 37.9553 392.144 -63.8933 -384.277
lowerback -0.796396 -0.295805 13.8736
upperback -5.22856 -0.143866 4.69416
thorax -5.14622 -0.659726 -2.75858
lowerneck 22.7925 -10.0059 -31.4534
upperneck -13.9238 -20.2328 44.1109
head 1.45026 -13.3095 23.7727
rclavicle 4.31114e-015 -7.31528e-014
rhumerus -39.4555 -2.51381 -80.766
rradius 37.8091
rwrist 13.2649
rhand -11.2978 5.06165
rfingers 7.12502
rthumb 14.7336 -24.3947
lclavicle 4.31114e-015 -7.31528e-014
lhumerus -46.6525 -12.9306 97.0438
lradius 38.1906
lwrist 33.231
lhand -12.9772 -17.6177
lfingers 7.12502
lthumb 13.1152 11.9499
rfemur -34.3753 -21.7709 38.7338
rtibia 44.8839
rfoot -12.9671 46.7743
rtoes 30.3523
lfemur -29.8503 5.05193 -12.2849
ltibia 69.9302
lfoot -11.6675 -17.3157
ltoes -25.0071
1135
root 3.57416 14.9639 37.972 392.482 -64.0511 -384.661
lowerback -0.837655 -0.333789 13.848
upperback -5.18749 -0.207215 4.75603
thorax -5.08627 -0.684244 -2.67838
lowerneck 22.7312 -9.97975 -31.4807
upperneck -13.6471 -20.2568 44.0583
head 1.53619 -13.3101 23.7178
rclavicle 3.54706e-014 -5.56597e-015
rhumerus -39.5245 -2.95971 -80.2744
rradius 37.0939
rwrist 13.9552
rhand -11.2537 5.10877
rfingers 7.12502
rthumb 14.776 -24.3445
lclavicle 3.54706e-014 -5.56597e-015
lhumerus -46.0547 -12.784 96.7166
lradius 38.2689
lwrist 33.5787
lhand -13.2667 -17.5362
lfingers 7.12502
lthumb 12.8361 12.0492
rfemur -34.0099 -21.7284 38.7414
rtibia 44.6328
rfoot -12.8808 46.9566
rtoes 30.5004
lfemur -30.5305 4.81985 -12.064
ltibia 70.7764
lfoot -12.5731 -14.4152
ltoes -26.4368
1136
root 3.53706 14.9712 37.9887 392.85 -64.215 -385.062
lowerback -0.887764 -0.362806 13.8261
upperback -5.15352 -0.259777 4.8084
thorax -5.02733 -0.704246 -2.61078
lowerneck 22.6596 -9.96316 -31.4909
upperneck -13.3641 -20.287 43.9972
head 1.62428 -13.3123 23.6473
rclavicle 3.21161e-014 -7.95139e-015
rhumerus -39.5847 -3.47947 -79.7383
rradius 36.3067
rwrist 14.7141
rhand -11.1644 5.17696
rfingers 7.12502
rthumb 14.8621 -24.27
lclavicle 3.21161e-014 -7.95139e-015
lhumerus -45.4649 -12.5385 96.3435
lradius 38.3727
lwrist 33.9751
lhand -13.6601 -17.4923
lfingers 7.12502
lthumb 12.4569 12.1165
rfemur -33.6607 -21.6495 38.7511
rtibia 44.3847
rfoot -12.824 47.1117
rtoes 30.5996
lfemur -31.2015 4.55836 -11.84
ltibia 71.5222
lfoot -13.2257 -11.5672
ltoes -27.4975
1137
root 3.50025 14.9783 38.0057 393.257 -64.3946 -385.492
lowerback -0.939739 -0.376985 13.8061
upperback -5.12617 -0.292484 4.85446
thorax -4.97155 -0.715207 -2.55154
lowerneck 22.5903 -9.95658 -31.4894
upperneck -13.0905 -20.3256 43.93
head 1.71033 -13.3183 23.5664
rclavicle -4.34966e-014 2.8625e-014
rhumerus -39.6444 -4.0842 -79.1433
rradius 35.4619
rwrist 15.5447
rhand -11.0251 5.23356
rfingers 7.12502
rthumb 14.9963 -24.2034
lclavicle -4.34966e-014 2.8625e-014
lhumerus -44.8898 -12.2088 95.9388
lradius 38.506
lwrist 34.4058
lhand -14.1287 -17.4764
lfingers 7.12502
lthumb 12.005 12.1593
rfemur -33.3213 -21.5288 38.7598
rtibia 44.142
rfoot -12.8005 47.2444
rtoes 30.6527
lfemur -31.8516 4.27529 -11.6136
ltibia 72.1553
lfoot -13.6688 -8.8271
ltoes -28.1161
1138
root 3.46374 14.9854 38.0232 393.686 -64.6002 -385.934
lowerback -0.995703 -0.380725 13.7884
upperback -5.10253 -0.311839 4.88608
thorax -4.91565 -0.720096 -2.50937
lowerneck 22.5262 -9.94893 -31.4862
upperneck -12.8239 -20.363 43.8655
head 1.79329 -13.3247 23.4898
rclavicle 3.86636e-014 -5.80451e-014
rhumerus -39.7064 -4.76527 -78.5053
rradius 34.5724
rwrist 16.4406
rhand -10.8556 5.26489
rfingers 7.12502
rthumb 15.1596 -24.1598
lclavicle 3.86636e-014 -5.80451e-014
lhumerus -44.3365 -11.7941 95.5009
lradius 38.6728
lwrist 34.8818
lhand -14.6626 -17.5002
lfingers 7.12502
lthumb 11.4902 12.1649
rfemur -32.9901 -21.3486 38.7493
rtibia 43.9097
rfoot -12.8063 47.3423
rtoes 30.6636
lfemur -32.4727 3.97376 -11.3983
ltibia 72.6636
lfoot -13.9746 -6.22089
ltoes -28.4088
1139
root 3.42739 14.9923 38.0411 394.124 -64.8372 -386.384
lowerback -1.04486 -0.372197 13.76
upperback -5.08071 -0.313571 4.90617
thorax -4.86283 -0.716227 -2.47418
lowerneck 22.4692 -9.94251 -31.4822
upperneck -12.5744 -20.3998 43.8019
head 1.8704 -13.3316 23.4161
rclavicle 7.15004e-014 -5.64548e-014
rhumerus -39.78 -5.50784 -77.8263
rradius 33.6617
rwrist 17.3645
rhand -10.68 5.24453
rfingers 7.12502
rthumb 15.3288 -24.1673
lclavicle 7.15004e-014 -5.64548e-014
lhumerus -43.8051 -11.3001 95.0373
lradius 38.8727
lwrist 35.3698
lhand -15.2136 -17.5466
lfingers 7.12502
lthumb 10.9588 12.1474
rfemur -32.6588 -21.1173 38.7119
rtibia 43.6908
rfoot -12.8519 47.4137
rtoes 30.6304
lfemur -33.0492 3.65264 -11.1964
ltibia 73.0354
lfoot -14.2015 -3.78627
ltoes -28.4674
1140
root 3.39134 14.9989 38.0595 394.555 -65.1123 -386.824
lowerback -1.08605 -0.352866 13.7137
upperback -5.06059 -0.299421 4.91385
thorax -4.8137 -0.704158 -2.44293
lowerneck 22.4156 -9.93398 -31.4836
upperneck -12.3404 -20.4324 43.7389
head 1.9419 -13.3365 23.3474
rclavicle -1.14798e-014 3.26007e-014
rhumerus -39.8697 -6.26571 -77.1241
rradius 32.7485
rwrist 18.2589
rhand -10.5054 5.17149
rfingers 7.12502
rthumb 15.4969 -24.2274
lclavicle -1.14798e-014 3.26007e-014
lhumerus -43.3082 -10.7574 94.5715
lradius 39.1213
lwrist 35.932
lhand -15.7978 -17.6182
lfingers 7.12502
lthumb 10.3952 12.1048
rfemur -32.33 -20.8222 38.6362
rtibia 43.491
rfoot -12.9495 47.4423
rtoes 30.5406
lfemur -33.5766 3.30672 -11.0179
ltibia 73.2626
lfoot -14.4055 -1.52791
ltoes -28.4336
1141
root 3.35533 15.0053 38.0782 394.958 -65.4264 -387.239
lowerback -1.11548 -0.320861 13.6485
upperback -5.03837 -0.266419 4.90006
thorax -4.76601 -0.682121 -2.42477
lowerneck 22.3667 -9.92973 -31.466
upperneck -12.1299 -20.4597 43.6749
head 2.00096 -13.3393 23.2761
rclavicle 7.83957e-015 5.24792e-014
rhumerus -39.9788 -7.10042 -76.3793
rradius 31.8313
rwrist 19.1799
rhand -10.3199 5.07744
rfingers 7.12502
rthumb 15.6755 -24.3076
lclavicle 7.83957e-015 5.24792e-014
lhumerus -42.8442 -10.1874 94.1037
lradius 39.4139
lwrist 36.5476
lhand -16.3858 -17.7075
lfingers 7.12502
lthumb 9.82798 12.0431
rfemur -31.9951 -20.4634 38.5132
rtibia 43.3135
rfoot -13.1116 47.4179
rtoes 30.3933
lfemur -34.0421 2.93131 -10.8666
ltibia 73.3406
lfoot -14.6188 0.536235
ltoes -28.3468
1142
root 3.31958 15.0114 38.097 395.335 -65.7779 -387.626
lowerback -1.1346 -0.280506 13.5619
upperback -5.01542 -0.220445 4.86728
thorax -4.72122 -0.653021 -2.4154
lowerneck 22.3151 -9.92649 -31.4329
upperneck -11.9387 -20.4773 43.6116
head 2.04901 -13.3375 23.2045
rclavicle 4.68386e-015 5.32743e-014
rhumerus -40.111 -7.83625 -75.6883
rradius 30.956
rwrist 19.9229
rhand -10.1935 4.85702
rfingers 7.12502
rthumb 15.7973 -24.5184
lclavicle 4.68386e-015 5.32743e-014
lhumerus -42.4188 -9.60868 93.6441
lradius 39.7591
lwrist 37.2422
lhand -16.9761 -17.8089
lfingers 7.12502
lthumb 9.25844 11.9678
rfemur -31.663 -20.0334 38.3468
rtibia 43.1608
rfoot -13.3445 47.3282
rtoes 30.1875
lfemur -34.4549 2.52341 -10.7406
ltibia 73.2714
lfoot -14.8622 2.40427
ltoes -28.2651
1143
root 3.28393 15.0172 38.116 395.679 -66.1697 -387.976
lowerback -1.14825 -0.228371 13.4588
upperback -4.98971 -0.157965 4.80648
thorax -4.67408 -0.615037 -2.4272
lowerneck 22.2683 -9.92269 -31.3973
upperneck -11.7702 -20.4925 43.5676
head 2.09297 -13.3379 23.1496
rclavicle 1.88845e-015 3.97569e-014
rhumerus -40.2582 -8.65532 -74.9642
rradius 30.0871
rwrist 20.7088
rhand -10.0692 4.62225
rfingers 7.12502
rthumb 15.917 -24.7437
lclavicle 1.88845e-015 3.97569e-014
lhumerus -42.0231 -9.03672 93.181
lradius 40.147
lwrist 37.9766
lhand -17.5093 -17.8974
lfingers 7.12502
lthumb 8.74388 11.9015
rfemur -31.3368 -19.5498 38.1358
rtibia 43.032
rfoot -13.5996 47.1911
rtoes 30.0177
lfemur -34.8176 2.08869 -10.6455
ltibia 73.0604
lfoot -15.1406 4.08752
ltoes -28.23
1144
root 3.24839 15.0226 38.135 395.995 -66.5939 -388.295
lowerback -1.15253 -0.171344 13.3309
upperback -4.96411 -0.0872144 4.73151
thorax -4.63086 -0.572218 -2.44064
lowerneck 22.2202 -9.91632 -31.3637
upperneck -11.6191 -20.5019 43.5354
head 2.1329 -13.337 23.1066
rclavicle 2.64756e-014 -2.3059e-014
rhumerus -40.426 -9.51328 -74.2074
rradius 29.242
rwrist 21.5211
rhand -9.93881 4.38614
rfingers 7.12502
rthumb 16.0426 -24.9697
lclavicle 2.64756e-014 -2.3059e-014
lhumerus -41.6596 -8.44351 92.7291
lradius 40.5703
lwrist 38.7504
lhand -18.0139 -17.9975
lfingers 7.12502
lthumb 8.25696 11.8211
rfemur -31.0181 -19.0257 37.8896
rtibia 42.9251
rfoot -13.8759 47.0166
rtoes 29.8738
lfemur -35.136 1.62145 -10.5721
ltibia 72.7176
lfoot -15.4416 5.58009
ltoes -28.2267
